<svg width="123" height="49" viewBox="0 0 123 49" fill="none" xmlns="http://www.w3.org/2000/svg">
<path d="M29.94 16.2H31.62V33H29.94V24.84H21.12V33H19.44V16.2H21.12V23.16H29.94V16.2ZM42.3103 33.312C41.1743 33.312 40.1063 33.088 39.1063 32.64C38.1063 32.184 37.2263 31.556 36.4663 30.756C35.7063 29.956 35.1103 29.032 34.6783 27.984C34.2463 26.928 34.0303 25.8 34.0303 24.6C34.0303 23.4 34.2463 22.276 34.6783 21.228C35.1103 20.172 35.7063 19.244 36.4663 18.444C37.2263 17.644 38.1063 17.02 39.1063 16.572C40.1063 16.116 41.1743 15.888 42.3103 15.888C43.4543 15.888 44.5263 16.116 45.5263 16.572C46.5263 17.02 47.4063 17.644 48.1663 18.444C48.9263 19.244 49.5183 20.172 49.9423 21.228C50.3743 22.276 50.5903 23.4 50.5903 24.6C50.5903 25.8 50.3743 26.928 49.9423 27.984C49.5183 29.032 48.9263 29.956 48.1663 30.756C47.4063 31.556 46.5263 32.184 45.5263 32.64C44.5263 33.088 43.4543 33.312 42.3103 33.312ZM42.3103 31.632C43.2303 31.632 44.0863 31.448 44.8783 31.08C45.6783 30.704 46.3783 30.192 46.9783 29.544C47.5863 28.896 48.0583 28.148 48.3943 27.3C48.7383 26.452 48.9103 25.552 48.9103 24.6C48.9103 23.64 48.7383 22.736 48.3943 21.888C48.0503 21.032 47.5743 20.284 46.9663 19.644C46.3663 18.996 45.6663 18.488 44.8663 18.12C44.0743 17.752 43.2223 17.568 42.3103 17.568C41.3903 17.568 40.5303 17.756 39.7303 18.132C38.9383 18.5 38.2383 19.008 37.6303 19.656C37.0303 20.304 36.5583 21.052 36.2143 21.9C35.8783 22.748 35.7103 23.648 35.7103 24.6C35.7103 25.568 35.8823 26.476 36.2263 27.324C36.5703 28.172 37.0423 28.92 37.6423 29.568C38.2503 30.216 38.9503 30.724 39.7423 31.092C40.5423 31.452 41.3983 31.632 42.3103 31.632ZM53.0259 33V16.2H58.4019C59.2979 16.2 60.1059 16.42 60.8259 16.86C61.5459 17.292 62.1179 17.88 62.5419 18.624C62.9739 19.36 63.1899 20.188 63.1899 21.108C63.1899 22.036 62.9699 22.872 62.5299 23.616C62.0979 24.36 61.5179 24.948 60.7899 25.38C60.0699 25.812 59.2739 26.028 58.4019 26.028H54.7059V33H53.0259ZM54.7059 24.348H58.2699C58.8619 24.348 59.4019 24.204 59.8899 23.916C60.3859 23.62 60.7779 23.224 61.0659 22.728C61.3619 22.224 61.5099 21.656 61.5099 21.024C61.5099 20.392 61.3619 19.828 61.0659 19.332C60.7779 18.828 60.3859 18.432 59.8899 18.144C59.4019 17.848 58.8619 17.7 58.2699 17.7H54.7059V24.348ZM65.6353 33V16.2H71.0113C71.9073 16.2 72.7153 16.42 73.4353 16.86C74.1553 17.292 74.7273 17.88 75.1513 18.624C75.5833 19.36 75.7993 20.188 75.7993 21.108C75.7993 22.036 75.5793 22.872 75.1393 23.616C74.7073 24.36 74.1273 24.948 73.3993 25.38C72.6793 25.812 71.8833 26.028 71.0113 26.028H67.3153V33H65.6353ZM67.3153 24.348H70.8793C71.4713 24.348 72.0113 24.204 72.4993 23.916C72.9953 23.62 73.3873 23.224 73.6753 22.728C73.9713 22.224 74.1193 21.656 74.1193 21.024C74.1193 20.392 73.9713 19.828 73.6753 19.332C73.3873 18.828 72.9953 18.432 72.4993 18.144C72.0113 17.848 71.4713 17.7 70.8793 17.7H67.3153V24.348ZM78.2447 33V16.2H88.4687V17.88H79.9247V23.16H86.9927V24.84H79.9247V31.32H88.4687V33H78.2447ZM91.2759 33V16.2H96.9759C97.8719 16.2 98.6799 16.42 99.3999 16.86C100.12 17.292 100.692 17.88 101.116 18.624C101.54 19.36 101.752 20.188 101.752 21.108C101.752 21.932 101.584 22.68 101.248 23.352C100.912 24.024 100.452 24.58 99.8679 25.02C99.2919 25.46 98.6399 25.752 97.9119 25.896L102.016 33H100.072L96.0279 26.028H92.9559V33H91.2759ZM92.9559 24.348H96.8319C97.4239 24.348 97.9639 24.204 98.4519 23.916C98.9479 23.62 99.3399 23.224 99.6279 22.728C99.9239 22.224 100.072 21.656 100.072 21.024C100.072 20.392 99.9239 19.828 99.6279 19.332C99.3399 18.828 98.9479 18.432 98.4519 18.144C97.9639 17.848 97.4239 17.7 96.8319 17.7H92.9559V24.348Z" fill="#734B6D"/>
<path d="M29.94 16.2V15.2774H29.0174V16.2H29.94ZM31.62 16.2H32.5426V15.2774H31.62V16.2ZM31.62 33V33.9226H32.5426V33H31.62ZM29.94 33H29.0174V33.9226H29.94V33ZM29.94 24.84H30.8626V23.9174H29.94V24.84ZM21.12 24.84V23.9174H20.1974V24.84H21.12ZM21.12 33V33.9226H22.0426V33H21.12ZM19.44 33H18.5174V33.9226H19.44V33ZM19.44 16.2V15.2774H18.5174V16.2H19.44ZM21.12 16.2H22.0426V15.2774H21.12V16.2ZM21.12 23.16H20.1974V24.0826H21.12V23.16ZM29.94 23.16V24.0826H30.8626V23.16H29.94ZM29.94 17.1226H31.62V15.2774H29.94V17.1226ZM30.6974 16.2V33H32.5426V16.2H30.6974ZM31.62 32.0774H29.94V33.9226H31.62V32.0774ZM30.8626 33V24.84H29.0174V33H30.8626ZM29.94 23.9174H21.12V25.7626H29.94V23.9174ZM20.1974 24.84V33H22.0426V24.84H20.1974ZM21.12 32.0774H19.44V33.9226H21.12V32.0774ZM20.3626 33V16.2H18.5174V33H20.3626ZM19.44 17.1226H21.12V15.2774H19.44V17.1226ZM20.1974 16.2V23.16H22.0426V16.2H20.1974ZM21.12 24.0826H29.94V22.2374H21.12V24.0826ZM30.8626 23.16V16.2H29.0174V23.16H30.8626ZM39.1063 32.64L38.7235 33.4795L38.7291 33.482L39.1063 32.64ZM36.4663 30.756L37.1352 30.1205L37.1352 30.1205L36.4663 30.756ZM34.6783 27.984L33.8244 28.3333L33.8253 28.3356L34.6783 27.984ZM34.6783 21.228L35.5313 21.5796L35.5322 21.5773L34.6783 21.228ZM36.4663 18.444L37.1352 19.0794L37.1352 19.0794L36.4663 18.444ZM39.1063 16.572L39.4835 17.414L39.4891 17.4115L39.1063 16.572ZM45.5263 16.572L45.1435 17.4115L45.1491 17.414L45.5263 16.572ZM48.1663 18.444L47.4974 19.0794L47.4974 19.0794L48.1663 18.444ZM49.9423 21.228L49.0861 21.5718L49.0893 21.5796L49.9423 21.228ZM49.9423 27.984L49.0884 27.6347L49.087 27.638L49.9423 27.984ZM48.1663 30.756L47.4974 30.1205L47.4974 30.1205L48.1663 30.756ZM45.5263 32.64L45.9035 33.482L45.9091 33.4795L45.5263 32.64ZM44.8783 31.08L45.2671 31.9167L45.2708 31.915L44.8783 31.08ZM46.9783 29.544L46.3055 28.9127L46.3013 28.9172L46.9783 29.544ZM48.3943 27.3L47.5393 26.9532L47.5366 26.9601L48.3943 27.3ZM48.3943 21.888L47.5382 22.232L47.5394 22.2348L48.3943 21.888ZM46.9663 19.644L46.2893 20.2709L46.2974 20.2794L46.9663 19.644ZM44.8663 18.12L44.4775 18.9567L44.4807 18.9582L44.8663 18.12ZM39.7303 18.132L40.1191 18.9687L40.1228 18.967L39.7303 18.132ZM37.6303 19.656L36.9575 19.0247L36.9533 19.0292L37.6303 19.656ZM36.2143 21.9L35.3593 21.5532L35.3566 21.5601L36.2143 21.9ZM36.2263 27.324L35.3714 27.6708L35.3714 27.6708L36.2263 27.324ZM37.6423 29.568L36.9653 30.1948L36.9695 30.1993L37.6423 29.568ZM39.7423 31.092L39.3535 31.9288L39.3637 31.9334L39.7423 31.092ZM42.3103 32.3894C41.2994 32.3894 40.3605 32.1909 39.4835 31.798L38.7291 33.482C39.8521 33.9851 41.0492 34.2346 42.3103 34.2346V32.3894ZM39.4891 31.8005C38.5971 31.3938 37.8141 30.8352 37.1352 30.1205L35.7974 31.3915C36.6385 32.2768 37.6155 32.9742 38.7235 33.4795L39.4891 31.8005ZM37.1352 30.1205C36.4557 29.4053 35.9212 28.5782 35.5313 27.6324L33.8253 28.3356C34.2995 29.4858 34.9569 30.5067 35.7974 31.3915L37.1352 30.1205ZM35.5322 27.6347C35.1479 26.6952 34.9529 25.6865 34.9529 24.6H33.1077C33.1077 25.9135 33.3447 27.1608 33.8244 28.3333L35.5322 27.6347ZM34.9529 24.6C34.9529 23.5135 35.1479 22.5096 35.5313 21.5796L33.8253 20.8764C33.3447 22.0424 33.1077 23.2865 33.1077 24.6H34.9529ZM35.5322 21.5773C35.9224 20.6237 36.4568 19.7936 37.1352 19.0794L35.7974 17.8085C34.9558 18.6944 34.2983 19.7203 33.8244 20.8787L35.5322 21.5773ZM37.1352 19.0794C37.813 18.366 38.5941 17.8125 39.4835 17.414L38.7291 15.73C37.6186 16.2275 36.6397 16.922 35.7974 17.8085L37.1352 19.0794ZM39.4891 17.4115C40.3649 17.0121 41.3018 16.8106 42.3103 16.8106V14.9654C41.0468 14.9654 39.8478 15.2199 38.7235 15.7325L39.4891 17.4115ZM42.3103 16.8106C43.3278 16.8106 44.2686 17.0125 45.1435 17.4115L45.9091 15.7325C44.784 15.2195 43.5809 14.9654 42.3103 14.9654V16.8106ZM45.1491 17.414C46.0386 17.8125 46.8197 18.366 47.4974 19.0794L48.8352 17.8085C47.993 16.922 47.0141 16.2275 45.9035 15.73L45.1491 17.414ZM47.4974 19.0794C48.1746 19.7923 48.7042 20.6205 49.0861 21.5718L50.7985 20.8842C50.3324 19.7235 49.678 18.6957 48.8352 17.8085L47.4974 19.0794ZM49.0893 21.5796C49.4727 22.5096 49.6677 23.5135 49.6677 24.6H51.5129C51.5129 23.2865 51.2759 22.0424 50.7953 20.8764L49.0893 21.5796ZM49.6677 24.6C49.6677 25.6865 49.4727 26.6952 49.0884 27.6347L50.7962 28.3333C51.2759 27.1608 51.5129 25.9135 51.5129 24.6H49.6677ZM49.087 27.638C48.7054 28.5813 48.1757 29.4066 47.4974 30.1205L48.8352 31.3915C49.6769 30.5054 50.3313 29.4827 50.7976 28.33L49.087 27.638ZM47.4974 30.1205C46.8185 30.8352 46.0355 31.3938 45.1435 31.8005L45.9091 33.4795C47.0171 32.9742 47.9941 32.2768 48.8352 31.3915L47.4974 30.1205ZM45.1491 31.798C44.273 32.1905 43.3302 32.3894 42.3103 32.3894V34.2346C43.5785 34.2346 44.7796 33.9855 45.9035 33.482L45.1491 31.798ZM42.3103 32.5546C43.3573 32.5546 44.3468 32.3443 45.2671 31.9167L44.4895 30.2433C43.8258 30.5517 43.1034 30.7094 42.3103 30.7094V32.5546ZM45.2708 31.915C46.178 31.4886 46.9746 30.9059 47.6553 30.1708L46.3013 28.9172C45.782 29.4781 45.1786 29.9194 44.4859 30.245L45.2708 31.915ZM47.6511 30.1753C48.3407 29.4404 48.8745 28.5928 49.2521 27.6399L47.5366 26.9601C47.2422 27.7031 46.8319 28.3516 46.3055 28.9127L47.6511 30.1753ZM49.2493 27.6468C49.6397 26.6842 49.8329 25.666 49.8329 24.6H47.9877C47.9877 25.438 47.8369 26.2198 47.5394 26.9532L49.2493 27.6468ZM49.8329 24.6C49.8329 23.527 49.6401 22.5047 49.2493 21.5412L47.5394 22.2348C47.8365 22.9673 47.9877 23.753 47.9877 24.6H49.8329ZM49.2504 21.544C48.8649 20.5848 48.327 19.7368 47.6352 19.0085L46.2974 20.2794C46.8216 20.8312 47.2357 21.4792 47.5382 22.232L49.2504 21.544ZM47.6433 19.0172C46.9612 18.2805 46.1623 17.7006 45.2519 17.2818L44.4807 18.9582C45.1703 19.2754 45.7714 19.7115 46.2893 20.2708L47.6433 19.0172ZM45.2551 17.2833C44.3359 16.8562 43.3505 16.6454 42.3103 16.6454V18.4906C43.0941 18.4906 43.8127 18.6478 44.4775 18.9567L45.2551 17.2833ZM42.3103 16.6454C41.2603 16.6454 40.2657 16.8609 39.3379 17.297L40.1228 18.967C40.7949 18.6511 41.5203 18.4906 42.3103 18.4906V16.6454ZM39.3415 17.2953C38.4407 17.7139 37.6447 18.2923 36.9575 19.0247L38.3031 20.2873C38.8319 19.7237 39.4359 19.2861 40.1191 18.9687L39.3415 17.2953ZM36.9533 19.0292C36.2748 19.7619 35.7437 20.6057 35.3594 21.5532L37.0693 22.2468C37.3729 21.4983 37.7858 20.8461 38.3073 20.2828L36.9533 19.0292ZM35.3566 21.5601C34.9758 22.521 34.7877 23.5368 34.7877 24.6H36.6329C36.6329 23.7592 36.7808 22.975 37.0721 22.2399L35.3566 21.5601ZM34.7877 24.6C34.7877 25.6799 34.9801 26.7064 35.3714 27.6708L37.0813 26.9772C36.7845 26.2456 36.6329 25.4561 36.6329 24.6H34.7877ZM35.3714 27.6708C35.7557 28.6183 36.2868 29.4621 36.9653 30.1948L38.3193 28.9412C37.7978 28.3779 37.3849 27.7257 37.0813 26.9772L35.3714 27.6708ZM36.9695 30.1993C37.6567 30.9317 38.4527 31.5101 39.3535 31.9287L40.1311 30.2553C39.4479 29.9379 38.8439 29.5003 38.3151 28.9367L36.9695 30.1993ZM39.3637 31.9334C40.2875 32.349 41.2731 32.5546 42.3103 32.5546V30.7094C41.5236 30.7094 40.7972 30.555 40.1209 30.2506L39.3637 31.9334ZM53.0259 33H52.1033V33.9226H53.0259V33ZM53.0259 16.2V15.2774H52.1033V16.2H53.0259ZM60.8259 16.86L60.3448 17.6473L60.3513 17.6511L60.8259 16.86ZM62.5419 18.624L61.7403 19.0809L61.7463 19.091L62.5419 18.624ZM62.5299 23.616L61.7358 23.1463L61.7321 23.1527L62.5299 23.616ZM60.7899 25.38L60.3191 24.5866L60.3153 24.5889L60.7899 25.38ZM54.7059 26.028V25.1054H53.7833V26.028H54.7059ZM54.7059 33V33.9226H55.6286V33H54.7059ZM54.7059 24.348H53.7833V25.2706H54.7059V24.348ZM59.8899 23.916L60.3589 24.7106L60.3627 24.7083L59.8899 23.916ZM61.0659 22.728L60.2704 22.2608L60.2681 22.2647L61.0659 22.728ZM61.0659 19.332L60.2649 19.7897L60.2692 19.7973L60.2737 19.8048L61.0659 19.332ZM59.8899 18.144L59.4115 18.9328L59.419 18.9374L59.4267 18.9419L59.8899 18.144ZM54.7059 17.7V16.7774H53.7833V17.7H54.7059ZM53.9486 33V16.2H52.1033V33H53.9486ZM53.0259 17.1226H58.4019V15.2774H53.0259V17.1226ZM58.4019 17.1226C59.1391 17.1226 59.7788 17.3013 60.3448 17.6472L61.307 16.0727C60.4331 15.5387 59.4568 15.2774 58.4019 15.2774V17.1226ZM60.3513 17.6511C60.9326 17.9999 61.3932 18.4716 61.7404 19.0808L63.3435 18.1672C62.8427 17.2884 62.1593 16.5841 61.3006 16.0689L60.3513 17.6511ZM61.7463 19.091C62.0887 19.6744 62.2673 20.3389 62.2673 21.108H64.1126C64.1126 20.0371 63.8592 19.0456 63.3376 18.157L61.7463 19.091ZM62.2673 21.108C62.2673 21.8834 62.0855 22.555 61.7358 23.1464L63.3241 24.0856C63.8544 23.189 64.1126 22.1886 64.1126 21.108H62.2673ZM61.7321 23.1527C61.3778 23.7629 60.9094 24.2363 60.3191 24.5866L61.2608 26.1734C62.1265 25.6597 62.8181 24.9571 63.3278 24.0793L61.7321 23.1527ZM60.3153 24.5889C59.7443 24.9314 59.1135 25.1054 58.4019 25.1054V26.9506C59.4344 26.9506 60.3956 26.6926 61.2646 26.1711L60.3153 24.5889ZM58.4019 25.1054H54.7059V26.9506H58.4019V25.1054ZM53.7833 26.028V33H55.6286V26.028H53.7833ZM54.7059 32.0774H53.0259V33.9226H54.7059V32.0774ZM54.7059 25.2706H58.2699V23.4254H54.7059V25.2706ZM58.2699 25.2706C59.0192 25.2706 59.7223 25.0862 60.3589 24.7106L59.421 23.1214C59.0816 23.3218 58.7047 23.4254 58.2699 23.4254V25.2706ZM60.3627 24.7083C60.9923 24.3326 61.4966 23.8238 61.8638 23.1913L60.2681 22.2647C60.0593 22.6242 59.7796 22.9074 59.4171 23.1237L60.3627 24.7083ZM61.8615 23.1952C62.2474 22.5381 62.4326 21.8065 62.4326 21.024H60.5873C60.5873 21.5055 60.4765 21.9099 60.2704 22.2608L61.8615 23.1952ZM62.4326 21.024C62.4326 20.2417 62.2474 19.5114 61.8582 18.8592L60.2737 19.8048C60.4764 20.1446 60.5873 20.5423 60.5873 21.024H62.4326ZM61.867 18.8743C61.4994 18.2309 60.9916 17.7168 60.3532 17.3461L59.4267 18.9419C59.7803 19.1472 60.0565 19.4251 60.2649 19.7897L61.867 18.8743ZM60.3684 17.3552C59.7306 16.9683 59.0241 16.7774 58.2699 16.7774V18.6226C58.6998 18.6226 59.0732 18.7277 59.4115 18.9328L60.3684 17.3552ZM58.2699 16.7774H54.7059V18.6226H58.2699V16.7774ZM53.7833 17.7V24.348H55.6286V17.7H53.7833ZM65.6353 33H64.7127V33.9226H65.6353V33ZM65.6353 16.2V15.2774H64.7127V16.2H65.6353ZM73.4353 16.86L72.9542 17.6473L72.9606 17.6511L73.4353 16.86ZM75.1513 18.624L74.3497 19.0809L74.3556 19.091L75.1513 18.624ZM75.1393 23.616L74.3452 23.1463L74.3414 23.1527L75.1393 23.616ZM73.3993 25.38L72.9285 24.5866L72.9246 24.5889L73.3993 25.38ZM67.3153 26.028V25.1054H66.3927V26.028H67.3153ZM67.3153 33V33.9226H68.2379V33H67.3153ZM67.3153 24.348H66.3927V25.2706H67.3153V24.348ZM72.4993 23.916L72.9682 24.7106L72.9721 24.7083L72.4993 23.916ZM73.6753 22.728L72.8797 22.2608L72.8774 22.2647L73.6753 22.728ZM73.6753 19.332L72.8743 19.7897L72.8786 19.7973L72.8831 19.8048L73.6753 19.332ZM72.4993 18.144L72.0208 18.9328L72.0284 18.9374L72.036 18.9419L72.4993 18.144ZM67.3153 17.7V16.7774H66.3927V17.7H67.3153ZM66.5579 33V16.2H64.7127V33H66.5579ZM65.6353 17.1226H71.0113V15.2774H65.6353V17.1226ZM71.0113 17.1226C71.7485 17.1226 72.3881 17.3013 72.9542 17.6472L73.9164 16.0727C73.0425 15.5387 72.0661 15.2774 71.0113 15.2774V17.1226ZM72.9606 17.6511C73.542 17.9999 74.0026 18.4716 74.3497 19.0808L75.9529 18.1672C75.4521 17.2884 74.7687 16.5841 73.91 16.0689L72.9606 17.6511ZM74.3556 19.091C74.6981 19.6744 74.8767 20.3389 74.8767 21.108H76.7219C76.7219 20.0371 76.4686 19.0456 75.947 18.157L74.3556 19.091ZM74.8767 21.108C74.8767 21.8834 74.6949 22.555 74.3452 23.1464L75.9334 24.0856C76.4637 23.189 76.7219 22.1886 76.7219 21.108H74.8767ZM74.3414 23.1527C73.9872 23.7629 73.5188 24.2363 72.9285 24.5866L73.8701 26.1734C74.7358 25.6597 75.4275 24.9571 75.9372 24.0793L74.3414 23.1527ZM72.9246 24.5889C72.3537 24.9314 71.7228 25.1054 71.0113 25.1054V26.9506C72.0438 26.9506 73.0049 26.6926 73.874 26.1711L72.9246 24.5889ZM71.0113 25.1054H67.3153V26.9506H71.0113V25.1054ZM66.3927 26.028V33H68.2379V26.028H66.3927ZM67.3153 32.0774H65.6353V33.9226H67.3153V32.0774ZM67.3153 25.2706H70.8793V23.4254H67.3153V25.2706ZM70.8793 25.2706C71.6286 25.2706 72.3317 25.0862 72.9682 24.7106L72.0304 23.1214C71.6909 23.3218 71.3141 23.4254 70.8793 23.4254V25.2706ZM72.9721 24.7083C73.6016 24.3326 74.1059 23.8238 74.4732 23.1913L72.8774 22.2647C72.6687 22.6242 72.389 22.9074 72.0265 23.1237L72.9721 24.7083ZM74.4709 23.1952C74.8568 22.5381 75.0419 21.8065 75.0419 21.024H73.1967C73.1967 21.5055 73.0858 21.9099 72.8798 22.2608L74.4709 23.1952ZM75.0419 21.024C75.0419 20.2417 74.8568 19.5114 74.4676 18.8592L72.8831 19.8048C73.0858 20.1446 73.1967 20.5423 73.1967 21.024H75.0419ZM74.4764 18.8743C74.1087 18.2309 73.601 17.7168 72.9626 17.3461L72.036 18.9419C72.3897 19.1472 72.6659 19.4251 72.8743 19.7897L74.4764 18.8743ZM72.9778 17.3552C72.34 16.9683 71.6335 16.7774 70.8793 16.7774V18.6226C71.3092 18.6226 71.6826 18.7277 72.0208 18.9328L72.9778 17.3552ZM70.8793 16.7774H67.3153V18.6226H70.8793V16.7774ZM66.3927 17.7V24.348H68.2379V17.7H66.3927ZM78.2447 33H77.3221V33.9226H78.2447V33ZM78.2447 16.2V15.2774H77.3221V16.2H78.2447ZM88.4687 16.2H89.3913V15.2774H88.4687V16.2ZM88.4687 17.88V18.8026H89.3913V17.88H88.4687ZM79.9247 17.88V16.9574H79.0021V17.88H79.9247ZM79.9247 23.16H79.0021V24.0826H79.9247V23.16ZM86.9927 23.16H87.9153V22.2374H86.9927V23.16ZM86.9927 24.84V25.7626H87.9153V24.84H86.9927ZM79.9247 24.84V23.9174H79.0021V24.84H79.9247ZM79.9247 31.32H79.0021V32.2426H79.9247V31.32ZM88.4687 31.32H89.3913V30.3974H88.4687V31.32ZM88.4687 33V33.9226H89.3913V33H88.4687ZM79.1673 33V16.2H77.3221V33H79.1673ZM78.2447 17.1226H88.4687V15.2774H78.2447V17.1226ZM87.5461 16.2V17.88H89.3913V16.2H87.5461ZM88.4687 16.9574H79.9247V18.8026H88.4687V16.9574ZM79.0021 17.88V23.16H80.8473V17.88H79.0021ZM79.9247 24.0826H86.9927V22.2374H79.9247V24.0826ZM86.0701 23.16V24.84H87.9153V23.16H86.0701ZM86.9927 23.9174H79.9247V25.7626H86.9927V23.9174ZM79.0021 24.84V31.32H80.8473V24.84H79.0021ZM79.9247 32.2426H88.4687V30.3974H79.9247V32.2426ZM87.5461 31.32V33H89.3913V31.32H87.5461ZM88.4687 32.0774H78.2447V33.9226H88.4687V32.0774ZM91.2759 33H90.3533V33.9226H91.2759V33ZM91.2759 16.2V15.2774H90.3533V16.2H91.2759ZM99.3999 16.86L98.9188 17.6473L98.9253 17.6511L99.3999 16.86ZM101.116 18.624L100.314 19.0808L100.316 19.0845L101.116 18.624ZM101.248 23.352L102.073 23.7646L102.073 23.7646L101.248 23.352ZM99.8679 25.02L99.3127 24.2831L99.3079 24.2868L99.8679 25.02ZM97.9119 25.896L97.7329 24.9909L96.4681 25.2411L97.1131 26.3575L97.9119 25.896ZM102.016 33V33.9226H103.614L102.815 32.5385L102.016 33ZM100.072 33L99.2739 33.4629L99.5405 33.9226H100.072V33ZM96.0279 26.028L96.826 25.5651L96.5594 25.1054H96.0279V26.028ZM92.9559 26.028V25.1054H92.0333V26.028H92.9559ZM92.9559 33V33.9226H93.8786V33H92.9559ZM92.9559 24.348H92.0333V25.2706H92.9559V24.348ZM98.4519 23.916L98.9209 24.7106L98.9247 24.7083L98.4519 23.916ZM99.6279 22.728L98.8324 22.2608L98.8301 22.2647L99.6279 22.728ZM99.6279 19.332L98.8269 19.7897L98.8312 19.7973L98.8357 19.8048L99.6279 19.332ZM98.4519 18.144L97.9735 18.9328L97.981 18.9374L97.9887 18.9419L98.4519 18.144ZM92.9559 17.7V16.7774H92.0333V17.7H92.9559ZM92.1986 33V16.2H90.3533V33H92.1986ZM91.2759 17.1226H96.9759V15.2774H91.2759V17.1226ZM96.9759 17.1226C97.7131 17.1226 98.3528 17.3013 98.9188 17.6472L99.881 16.0727C99.0071 15.5387 98.0308 15.2774 96.9759 15.2774V17.1226ZM98.9253 17.6511C99.5066 17.9999 99.9672 18.4716 100.314 19.0808L101.918 18.1672C101.417 17.2884 100.733 16.5841 99.8746 16.0689L98.9253 17.6511ZM100.316 19.0845C100.653 19.6689 100.829 20.3358 100.829 21.108H102.675C102.675 20.0402 102.427 19.0511 101.915 18.1634L100.316 19.0845ZM100.829 21.108C100.829 21.8029 100.689 22.4075 100.423 22.9394L102.073 23.7646C102.479 22.9525 102.675 22.0611 102.675 21.108H100.829ZM100.423 22.9394C100.149 23.4875 99.7797 23.9313 99.3128 24.2831L100.423 25.7569C101.124 25.2287 101.675 24.5605 102.073 23.7646L100.423 22.9394ZM99.3079 24.2868C98.8468 24.639 98.3258 24.8736 97.7329 24.9909L98.091 26.8011C98.954 26.6304 99.7371 26.281 100.428 25.7532L99.3079 24.2868ZM97.1131 26.3575L101.217 33.4615L102.815 32.5385L98.7108 25.4345L97.1131 26.3575ZM102.016 32.0774H100.072V33.9226H102.016V32.0774ZM100.87 32.5371L96.826 25.5651L95.2299 26.4909L99.2739 33.4629L100.87 32.5371ZM96.0279 25.1054H92.9559V26.9506H96.0279V25.1054ZM92.0333 26.028V33H93.8786V26.028H92.0333ZM92.9559 32.0774H91.2759V33.9226H92.9559V32.0774ZM92.9559 25.2706H96.8319V23.4254H92.9559V25.2706ZM96.8319 25.2706C97.5812 25.2706 98.2843 25.0862 98.9209 24.7106L97.983 23.1214C97.6436 23.3218 97.2667 23.4254 96.8319 23.4254V25.2706ZM98.9247 24.7083C99.5543 24.3326 100.059 23.8238 100.426 23.1913L98.8301 22.2647C98.6213 22.6242 98.3416 22.9074 97.9791 23.1237L98.9247 24.7083ZM100.423 23.1952C100.809 22.5381 100.995 21.8065 100.995 21.024H99.1493C99.1493 21.5055 99.0385 21.9099 98.8324 22.2608L100.423 23.1952ZM100.995 21.024C100.995 20.2417 100.809 19.5114 100.42 18.8592L98.8357 19.8048C99.0384 20.1446 99.1493 20.5423 99.1493 21.024H100.995ZM100.429 18.8743C100.061 18.2309 99.5536 17.7168 98.9152 17.3461L97.9887 18.9419C98.3423 19.1472 98.6185 19.4251 98.8269 19.7897L100.429 18.8743ZM98.9304 17.3552C98.2926 16.9683 97.5861 16.7774 96.8319 16.7774V18.6226C97.2618 18.6226 97.6352 18.7277 97.9735 18.9328L98.9304 17.3552ZM96.8319 16.7774H92.9559V18.6226H96.8319V16.7774ZM92.0333 17.7V24.348H93.8786V17.7H92.0333Z" fill="#724A6C"/>
<path d="M5.19071 18.9229C5.39548 19.5781 5.805 20.1719 6.41929 20.7043C7.05405 21.2367 7.78095 21.769 8.6 22.3014C9.43952 22.8338 10.3098 23.4174 11.2107 24.0521C12.1117 24.6664 12.9614 25.3933 13.76 26.2329C14.5586 27.0519 15.2138 28.0245 15.7257 29.1507C15.6233 29.8674 15.3469 30.625 14.8964 31.4236C14.4664 32.2017 13.9443 32.9183 13.33 33.5736C12.7157 34.2288 12.081 34.7202 11.4257 35.0479C11.1595 35.0888 10.8729 35.1298 10.5657 35.1707C10.2586 35.1912 9.93095 35.2014 9.58286 35.2014L9.46 39.1943C8.35429 39.5014 7.24857 39.5014 6.14286 39.1943L6.48071 35.0479C5.43643 34.9045 4.38191 34.669 3.31714 34.3414C3.05095 34.0752 2.73357 33.7271 2.365 33.2971C1.99643 32.8467 1.66881 32.4064 1.38214 31.9764L1.84286 27.9836C2.21143 27.8812 2.64143 27.8095 3.13286 27.7686C3.64476 27.7276 4.09524 27.7583 4.48429 27.8607L4.76071 31.485C5.51833 31.6079 6.35786 31.6795 7.27929 31.7C8.22119 31.7 9.14262 31.6283 10.0436 31.485C10.9445 31.3417 11.7226 31.1164 12.3779 30.8093C11.9888 30.0517 11.436 29.3657 10.7193 28.7514C10.0026 28.1167 9.21429 27.5126 8.35429 26.9393C7.49429 26.366 6.63429 25.7824 5.77429 25.1886C4.91429 24.5948 4.13619 23.96 3.44 23.2843C2.74381 22.5881 2.22167 21.8202 1.87357 20.9807C1.99643 20.2436 2.2319 19.4962 2.58 18.7386C2.9281 17.9605 3.32738 17.2643 3.77786 16.65C4.24881 16.0152 4.70952 15.5443 5.16 15.2371C6.06095 14.9914 6.94143 14.8379 7.80143 14.7764L7.92429 10.6914C8.9481 10.4048 10.0026 10.415 11.0879 10.7221L10.7193 14.8071C11.1698 14.8481 11.6202 14.9095 12.0707 14.9914C12.5417 15.0529 13.0126 15.1348 13.4836 15.2371C13.6679 15.3395 13.8829 15.534 14.1286 15.8207C14.3948 16.0869 14.6405 16.3633 14.8657 16.65C15.1114 16.9367 15.2855 17.1721 15.3879 17.3564L14.9579 21.1343C14.5893 21.2776 14.1695 21.3493 13.6986 21.3493C13.2276 21.3493 12.7771 21.2981 12.3471 21.1957L12.1014 18.1857C11.4871 18.0833 10.7602 18.0321 9.92072 18.0321C9.10167 18.0321 8.27238 18.1038 7.43286 18.2471C6.61381 18.37 5.86643 18.5952 5.19071 18.9229Z" fill="#734B6D"/>
<path d="M121.115 15.1168C121.464 16.0998 120.95 17.1798 119.967 17.529L108.548 21.5847C107.565 21.9338 106.485 21.4199 106.136 20.4369L104.195 14.9711C103.846 13.9881 104.359 12.9081 105.342 12.5589L116.761 8.50325C117.744 8.15409 118.824 8.66797 119.174 9.65104L121.115 15.1168Z" fill="#42275A"/>
<path d="M101.61 18.9734L104.618 13.1247L107.634 21.6145L101.61 18.9734Z" fill="#42275A"/>
<path d="M116.692 5.89422C117.485 6.57202 117.578 7.76437 116.901 8.55743L109.028 17.7692C108.35 18.5622 107.158 18.6557 106.365 17.9779L101.955 14.2095C101.162 13.5317 101.069 12.3393 101.747 11.5462L109.619 2.3345C110.297 1.54144 111.49 1.448 112.283 2.12579L116.692 5.89422Z" fill="#734B6D"/>
<path d="M101.712 18.9673L101.401 12.3979L108.25 18.2513L101.712 18.9673Z" fill="#734B6D"/>
<circle cx="104.181" cy="16.1812" r="0.944473" transform="rotate(-107.165 104.181 16.1812)" fill="white"/>
<path d="M104.351 16.5762C104.119 15.8264 103.97 15.0542 103.736 14.2956C103.534 13.6423 103.315 12.9842 103.029 12.3623C102.775 11.811 102.258 11.5193 101.786 11.1772C101.348 10.859 101.034 10.6084 100.531 10.4495C99.9178 10.2559 99.2943 10.165 98.6514 10.1384C97.6587 10.0973 97.0791 10.4593 96.3261 11.0758C95.9728 11.3651 95.3237 11.8897 95.1722 12.3387C94.9479 13.0039 94.9044 13.9141 94.9956 14.6047C95.1328 15.6446 95.5854 16.8491 96.3717 17.5764C97.184 18.3277 98.52 19.3633 99.7181 18.9933" stroke="black" stroke-width="0.377789" stroke-linecap="round"/>
</svg>
